# Blender 4.3.2
# www.blender.org
mtllib x-wing2__gun.mtl
o Cylinder.001
v 1.053766 -10.577589 0.311377
v 1.053766 -10.586522 0.310498
v 1.053766 -10.569000 0.313983
v 1.053766 -10.561084 0.318214
v 1.053766 -10.554145 0.323908
v 1.053766 -10.548450 0.330847
v 1.053766 -10.544220 0.338763
v 1.053766 -10.541615 0.347353
v 1.053766 -10.540734 0.356285
v 1.053766 -10.541615 0.365218
v 1.053766 -10.544220 0.373808
v 1.053766 -10.548450 0.381724
v 1.053766 -10.554145 0.388662
v 1.053766 -10.561084 0.394356
v 1.053766 -10.569000 0.398588
v 1.053766 -10.577589 0.401193
v 1.053766 -10.586522 0.402073
v 1.053766 -10.595455 0.401193
v 1.053766 -10.604044 0.398588
v 1.053766 -10.611960 0.394356
v 1.053766 -10.618899 0.388662
v 1.053766 -10.624593 0.381724
v 1.053766 -10.628824 0.373808
v 1.053766 -10.631430 0.365218
v 1.053766 -10.632310 0.356285
v 1.053766 -10.631430 0.347353
v 1.053766 -10.628824 0.338763
v 1.053766 -10.624593 0.330847
v 1.053766 -10.618899 0.323908
v 1.053766 -10.611960 0.318214
v 1.053766 -10.604044 0.313983
v 1.053766 -10.595455 0.311377
v 2.851116 -10.577585 0.311377
v 2.851116 -10.586518 0.310498
v 2.851116 -10.568995 0.313983
v 2.851116 -10.561080 0.318214
v 2.851116 -10.554141 0.323908
v 2.851116 -10.548447 0.330847
v 2.851116 -10.544215 0.338763
v 2.851116 -10.541610 0.347353
v 2.851116 -10.540730 0.356285
v 2.851116 -10.541610 0.365218
v 2.851116 -10.544215 0.373808
v 2.851116 -10.548447 0.381724
v 2.851116 -10.554141 0.388662
v 2.851116 -10.561080 0.394356
v 2.851116 -10.568995 0.398588
v 2.851116 -10.577585 0.401193
v 2.851116 -10.586518 0.402073
v 2.851116 -10.595450 0.401193
v 2.851116 -10.604040 0.398588
v 2.851116 -10.611957 0.394356
v 2.851116 -10.618895 0.388662
v 2.851116 -10.624589 0.381724
v 2.851116 -10.628820 0.373808
v 2.851116 -10.631426 0.365218
v 2.851116 -10.632306 0.356285
v 2.851116 -10.631426 0.347353
v 2.851116 -10.628820 0.338763
v 2.851116 -10.624589 0.330847
v 2.851116 -10.618895 0.323908
v 2.851116 -10.611957 0.318214
v 2.851116 -10.604040 0.313983
v 2.851116 -10.595450 0.311377
v 2.949585 -10.552160 0.183577
v 2.949585 -10.586514 0.180193
v 2.949585 -10.519127 0.193598
v 2.949585 -10.488683 0.209870
v 2.949585 -10.461999 0.231770
v 2.949585 -10.440100 0.258454
v 2.949585 -10.423826 0.288898
v 2.949585 -10.413806 0.321931
v 2.949585 -10.410422 0.356285
v 2.949585 -10.413806 0.390639
v 2.949585 -10.423826 0.423673
v 2.949585 -10.440100 0.454117
v 2.949585 -10.461999 0.480801
v 2.949585 -10.488683 0.502700
v 2.949585 -10.519127 0.518973
v 2.949585 -10.552160 0.528994
v 2.949585 -10.586514 0.532377
v 2.949585 -10.620868 0.528994
v 2.949585 -10.653902 0.518973
v 2.949585 -10.684346 0.502700
v 2.949585 -10.711030 0.480801
v 2.949585 -10.732929 0.454117
v 2.949585 -10.749202 0.423673
v 2.949585 -10.759223 0.390639
v 2.949585 -10.762607 0.356285
v 2.949585 -10.759223 0.321931
v 2.949585 -10.749202 0.288898
v 2.949585 -10.732929 0.258454
v 2.949585 -10.711030 0.231770
v 2.949585 -10.684346 0.209870
v 2.949585 -10.653902 0.193598
v 2.949585 -10.620868 0.183577
v 2.919991 -10.580801 0.327553
v 2.919991 -10.586516 0.326990
v 2.919991 -10.575305 0.329220
v 2.919991 -10.570240 0.331927
v 2.919991 -10.565801 0.335570
v 2.919991 -10.562158 0.340010
v 2.919991 -10.559450 0.345074
v 2.919991 -10.557783 0.350570
v 2.919991 -10.557220 0.356285
v 2.919991 -10.557783 0.362001
v 2.919991 -10.559450 0.367496
v 2.919991 -10.562158 0.372561
v 2.919991 -10.565801 0.377000
v 2.919991 -10.570240 0.380644
v 2.919991 -10.575305 0.383351
v 2.919991 -10.580801 0.385018
v 2.919991 -10.586516 0.385581
v 2.919991 -10.592232 0.385018
v 2.919991 -10.597727 0.383351
v 2.919991 -10.602792 0.380644
v 2.919991 -10.607231 0.377000
v 2.919991 -10.610874 0.372561
v 2.919991 -10.613582 0.367496
v 2.919991 -10.615249 0.362001
v 2.919991 -10.615811 0.356285
v 2.919991 -10.615249 0.350570
v 2.919991 -10.613582 0.345074
v 2.919991 -10.610874 0.340010
v 2.919991 -10.607231 0.335570
v 2.919991 -10.602792 0.331927
v 2.919991 -10.597727 0.329220
v 2.919991 -10.592232 0.327553
v 3.241817 -10.580801 0.327553
v 3.241817 -10.586516 0.326990
v 3.241817 -10.575305 0.329220
v 3.241817 -10.570240 0.331927
v 3.241817 -10.565801 0.335570
v 3.241817 -10.562158 0.340010
v 3.241817 -10.559450 0.345074
v 3.241817 -10.557783 0.350570
v 3.241817 -10.557220 0.356285
v 3.241817 -10.557783 0.362001
v 3.241817 -10.559450 0.367496
v 3.241817 -10.562158 0.372561
v 3.241817 -10.565801 0.377000
v 3.241817 -10.570240 0.380644
v 3.241817 -10.575305 0.383351
v 3.241817 -10.580801 0.385018
v 3.241817 -10.586516 0.385581
v 3.241817 -10.592232 0.385018
v 3.241817 -10.597727 0.383351
v 3.241817 -10.602792 0.380644
v 3.241817 -10.607231 0.377000
v 3.241817 -10.610874 0.372561
v 3.241817 -10.613582 0.367496
v 3.241817 -10.615249 0.362001
v 3.241817 -10.615811 0.356285
v 3.241817 -10.615249 0.350570
v 3.241817 -10.613582 0.345074
v 3.241817 -10.610874 0.340010
v 3.241817 -10.607231 0.335570
v 3.241817 -10.602792 0.331927
v 3.241817 -10.597727 0.329220
v 3.241817 -10.592232 0.327553
vn -0.0000 -0.6344 0.7730
vn -0.7964 -0.1756 0.5787
vn -0.0000 0.9569 -0.2903
vn -0.0000 -0.7730 0.6344
vn -0.0000 0.9952 -0.0980
vn -0.0000 -0.8819 0.4714
vn -0.0000 0.9952 0.0980
vn -0.0000 -0.9569 0.2903
vn -0.0000 0.9569 0.2903
vn -0.0000 -0.9952 0.0980
vn -0.0000 0.8819 0.4714
vn -0.0000 -0.9952 -0.0980
vn -0.0000 0.7730 0.6344
vn -0.0000 -0.9569 -0.2903
vn -0.0000 0.6344 0.7730
vn -0.0000 -0.8819 -0.4714
vn -0.0000 0.4714 0.8819
vn -0.0000 0.0980 -0.9952
vn -0.0000 -0.7730 -0.6344
vn -0.0000 0.2903 0.9569
vn -0.0000 0.2903 -0.9569
vn -0.0000 -0.6344 -0.7730
vn -0.0000 0.0980 0.9952
vn -0.0000 0.4714 -0.8819
vn -0.0000 -0.4714 -0.8819
vn -0.0000 -0.0980 0.9952
vn -0.0000 0.6344 -0.7730
vn -0.0000 -0.2903 -0.9569
vn -0.0000 -0.2903 0.9569
vn -0.0000 0.7730 -0.6344
vn -0.0000 -0.0980 -0.9952
vn -0.0000 -0.4714 0.8819
vn -0.0000 0.8819 -0.4714
vn 0.9801 -0.1976 -0.0195
vn -0.7964 0.4675 -0.3836
vn -0.7964 -0.0593 -0.6018
vn -0.7964 -0.2851 0.5333
vn -0.7964 0.5333 -0.2851
vn -0.7964 -0.3837 0.4675
vn -0.7964 0.5787 -0.1755
vn -0.7964 -0.4675 0.3837
vn -0.7964 0.6018 -0.0593
vn -0.7964 -0.5333 0.2851
vn -0.7964 0.6018 0.0593
vn -0.7964 -0.5787 0.1756
vn -0.7964 0.5787 0.1755
vn -0.7964 -0.6018 0.0593
vn -0.7964 0.5333 0.2851
vn -0.7964 -0.6018 -0.0593
vn -0.7964 0.4675 0.3836
vn -0.7964 -0.5787 -0.1756
vn -0.7964 0.3836 0.4675
vn -0.7964 -0.5333 -0.2851
vn -0.7964 0.2851 0.5333
vn -0.7964 0.0593 -0.6018
vn -0.7964 -0.4675 -0.3837
vn -0.7964 0.1756 0.5787
vn -0.7964 0.1755 -0.5787
vn -0.7964 -0.3836 -0.4675
vn -0.7964 0.0593 0.6018
vn -0.7964 0.2851 -0.5333
vn -0.7964 -0.2851 -0.5333
vn -0.7964 -0.0593 0.6018
vn -0.7964 0.3836 -0.4675
vn -0.7964 -0.1755 -0.5787
vn 0.9801 0.1900 -0.0576
vn 0.9801 -0.1900 -0.0576
vn 0.9801 0.1976 -0.0195
vn 0.9801 -0.1751 -0.0936
vn 0.9801 0.1976 0.0195
vn 0.9801 -0.1535 -0.1260
vn 0.9801 0.1900 0.0576
vn 0.9801 -0.1259 -0.1535
vn 0.9801 0.1751 0.0936
vn 0.9801 -0.0936 -0.1751
vn 0.9801 -0.0195 0.1976
vn 0.9801 0.1535 0.1260
vn 0.9801 -0.0576 -0.1900
vn 0.9801 -0.0576 0.1900
vn 0.9801 0.1260 0.1535
vn 0.9801 -0.0195 -0.1976
vn 0.9801 -0.0936 0.1751
vn 0.9801 0.0936 0.1751
vn 0.9801 0.0195 -0.1976
vn 0.9801 -0.1259 0.1535
vn 0.9801 0.0576 0.1900
vn 0.9801 0.0576 -0.1900
vn 0.9801 -0.1535 0.1260
vn 0.9801 0.0195 0.1976
vn 0.9801 0.0936 -0.1751
vn 0.9801 -0.1751 0.0936
vn 0.9801 0.1260 -0.1535
vn 0.9801 -0.1900 0.0576
vn 0.9801 0.1535 -0.1260
vn 0.9801 -0.1976 0.0195
vn 0.9801 0.1751 -0.0936
vn 1.0000 -0.0000 -0.0000
vt 0.383371 0.649434
vt 0.374932 0.649471
vt 0.374932 0.438914
vt 0.383371 0.438877
vt 0.566769 0.505061
vt 0.563615 0.497447
vt 0.669134 0.441049
vt 0.681264 0.470333
vt 0.207570 0.967758
vt 0.197421 0.967758
vt 0.197421 0.757201
vt 0.207570 0.757201
vt 0.365556 0.649496
vt 0.365556 0.438939
vt 0.187467 0.967771
vt 0.187467 0.757214
vt 0.355601 0.649509
vt 0.355601 0.438952
vt 0.178090 0.967796
vt 0.178090 0.757239
vt 0.345452 0.649509
vt 0.345452 0.438952
vt 0.169652 0.967832
vt 0.169652 0.757275
vt 0.335498 0.649496
vt 0.335498 0.438939
vt 0.162475 0.967879
vt 0.162475 0.757322
vt 0.326121 0.649471
vt 0.326121 0.438914
vt 0.301029 0.967832
vt 0.292590 0.967795
vt 0.292590 0.757239
vt 0.301029 0.757275
vt 0.317683 0.649434
vt 0.317683 0.438878
vt 0.283213 0.967770
vt 0.283213 0.757214
vt 0.310506 0.649388
vt 0.310506 0.438831
vt 0.273259 0.967758
vt 0.273259 0.757201
vt 0.335499 0.860174
vt 0.326122 0.860148
vt 0.326122 0.649592
vt 0.335498 0.649617
vt 0.383371 0.860113
vt 0.374933 0.860149
vt 0.374933 0.649593
vt 0.383371 0.649556
vt 0.263110 0.967758
vt 0.263110 0.757201
vt 0.317683 0.860112
vt 0.317683 0.649555
vt 0.365556 0.860174
vt 0.365556 0.649618
vt 0.253156 0.967771
vt 0.253156 0.757214
vt 0.310506 0.860065
vt 0.310506 0.649509
vt 0.355602 0.860187
vt 0.355602 0.649630
vt 0.243779 0.967796
vt 0.243779 0.757240
vt 0.235340 0.967833
vt 0.226901 0.967796
vt 0.226901 0.757239
vt 0.235340 0.757276
vt 0.345453 0.860187
vt 0.345453 0.649630
vt 0.235340 0.967833
vt 0.235340 0.757276
vt 0.217525 0.967771
vt 0.217525 0.757214
vt 0.390548 0.649387
vt 0.390548 0.438831
vt 0.365627 0.823241
vt 0.371811 0.792154
vt 0.500798 0.831281
vt 0.499769 0.836453
vt 0.499865 0.549765
vt 0.506718 0.554344
vt 0.450318 0.659866
vt 0.423963 0.642256
vt 0.484697 0.513145
vt 0.484697 0.521387
vt 0.365627 0.533117
vt 0.365627 0.501421
vt 0.559036 0.490594
vt 0.651524 0.414694
vt 0.514332 0.557498
vt 0.479601 0.671996
vt 0.553208 0.484766
vt 0.629112 0.392282
vt 0.522416 0.559106
vt 0.510689 0.678179
vt 0.546356 0.480187
vt 0.602757 0.374672
vt 0.530658 0.559106
vt 0.542385 0.678179
vt 0.538741 0.477033
vt 0.573473 0.362542
vt 0.538741 0.557498
vt 0.573473 0.671996
vt 0.530658 0.475425
vt 0.542385 0.356359
vt 0.546356 0.554344
vt 0.602757 0.659866
vt 0.522416 0.475425
vt 0.510689 0.356358
vt 0.553208 0.549765
vt 0.629112 0.642256
vt 0.514332 0.477033
vt 0.479601 0.362542
vt 0.559036 0.543937
vt 0.651524 0.619843
vt 0.506718 0.480187
vt 0.450318 0.374672
vt 0.563615 0.537084
vt 0.669134 0.593489
vt 0.499865 0.484766
vt 0.423963 0.392282
vt 0.566769 0.529470
vt 0.681264 0.564205
vt 0.486305 0.529470
vt 0.371811 0.564205
vt 0.494037 0.490594
vt 0.401550 0.414695
vt 0.568377 0.521387
vt 0.687447 0.533117
vt 0.489459 0.537084
vt 0.383940 0.593489
vt 0.489459 0.497447
vt 0.383940 0.441049
vt 0.568377 0.513145
vt 0.687448 0.501421
vt 0.494037 0.543937
vt 0.401550 0.619843
vt 0.486305 0.505061
vt 0.371811 0.470333
vt 0.824865 0.203868
vt 0.824842 0.209267
vt 0.787140 0.209267
vt 0.787164 0.203868
vt 0.681264 0.792154
vt 0.687448 0.823241
vt 0.553309 0.836453
vt 0.552280 0.831281
vt 0.383940 0.762870
vt 0.502816 0.826410
vt 0.687448 0.854938
vt 0.553309 0.841726
vt 0.401550 0.736515
vt 0.505745 0.822025
vt 0.681264 0.886025
vt 0.552280 0.846898
vt 0.423963 0.714102
vt 0.509474 0.818296
vt 0.669134 0.915309
vt 0.550262 0.851770
vt 0.450318 0.696493
vt 0.513859 0.815367
vt 0.651524 0.941664
vt 0.547332 0.856155
vt 0.479601 0.684363
vt 0.518730 0.813349
vt 0.510689 1.000000
vt 0.479601 0.993816
vt 0.518730 0.864831
vt 0.523902 0.865860
vt 0.629112 0.964077
vt 0.543604 0.859883
vt 0.510689 0.678179
vt 0.523902 0.812320
vt 0.450318 0.981686
vt 0.513859 0.862813
vt 0.602757 0.981687
vt 0.539219 0.862813
vt 0.542386 0.678179
vt 0.529175 0.812320
vt 0.423963 0.964077
vt 0.509474 0.859883
vt 0.573473 0.993816
vt 0.534347 0.864831
vt 0.573473 0.684363
vt 0.534347 0.813349
vt 0.401550 0.941664
vt 0.505745 0.856155
vt 0.542386 1.000000
vt 0.529175 0.865860
vt 0.602757 0.696493
vt 0.539219 0.815367
vt 0.383940 0.915309
vt 0.502816 0.851770
vt 0.629112 0.714102
vt 0.543604 0.818296
vt 0.371811 0.886025
vt 0.500798 0.846898
vt 0.651524 0.736515
vt 0.547332 0.822025
vt 0.365627 0.854938
vt 0.499769 0.841726
vt 0.669134 0.762870
vt 0.550262 0.826410
vt 0.322457 0.918758
vt 0.317866 0.914166
vt 0.314258 0.908767
vt 0.311773 0.902768
vt 0.310506 0.896399
vt 0.310506 0.889905
vt 0.311773 0.883537
vt 0.314258 0.877537
vt 0.317866 0.872138
vt 0.322457 0.867546
vt 0.327857 0.863939
vt 0.333856 0.861454
vt 0.340225 0.860187
vt 0.346718 0.860187
vt 0.353087 0.861454
vt 0.359086 0.863939
vt 0.364486 0.867546
vt 0.369077 0.872138
vt 0.372685 0.877537
vt 0.375170 0.883537
vt 0.376437 0.889905
vt 0.376437 0.896399
vt 0.375170 0.902768
vt 0.372685 0.908767
vt 0.369077 0.914166
vt 0.364486 0.918758
vt 0.359086 0.922366
vt 0.353087 0.924851
vt 0.346718 0.926117
vt 0.340225 0.926117
vt 0.333856 0.924851
vt 0.327857 0.922366
vt 0.862619 0.240497
vt 0.862596 0.245896
vt 0.824895 0.245896
vt 0.824918 0.240497
vt 0.824826 0.215267
vt 0.787124 0.215267
vt 0.787039 0.203868
vt 0.787068 0.208460
vt 0.749367 0.208460
vt 0.749337 0.203868
vt 0.824817 0.221635
vt 0.787116 0.221635
vt 0.787108 0.239089
vt 0.787092 0.245089
vt 0.749391 0.245089
vt 0.749407 0.239089
vt 0.787092 0.213859
vt 0.749391 0.213859
vt 0.824817 0.228129
vt 0.787116 0.228129
vt 0.787068 0.250488
vt 0.749367 0.250488
vt 0.787108 0.219858
vt 0.749407 0.219858
vt 0.824826 0.234498
vt 0.787124 0.234498
vt 0.787039 0.255080
vt 0.749337 0.255080
vt 0.787116 0.226227
vt 0.749415 0.226227
vt 0.824842 0.240497
vt 0.787140 0.240497
vt 0.428297 0.780821
vt 0.428273 0.786220
vt 0.390572 0.786220
vt 0.390595 0.780821
vt 0.787116 0.232721
vt 0.749415 0.232721
vt 0.824865 0.245896
vt 0.787164 0.245896
vt 0.428257 0.792219
vt 0.390556 0.792219
vt 0.824895 0.250488
vt 0.787193 0.250488
vt 0.428249 0.798588
vt 0.390548 0.798588
vt 0.862596 0.203868
vt 0.862619 0.209268
vt 0.824918 0.209268
vt 0.824895 0.203868
vt 0.428249 0.805082
vt 0.390548 0.805082
vt 0.862636 0.215267
vt 0.824934 0.215267
vt 0.428257 0.811450
vt 0.390556 0.811450
vt 0.862644 0.221636
vt 0.824942 0.221636
vt 0.428273 0.817450
vt 0.390572 0.817450
vt 0.862644 0.228129
vt 0.824942 0.228129
vt 0.428297 0.822849
vt 0.390595 0.822849
vt 0.862636 0.234498
vt 0.824934 0.234498
vt 0.428327 0.827440
vt 0.390625 0.827440
s 0
usemtl joint_canon_texture
f 20/1/1 21/2/1 53/3/1 52/4/1
f 50/5/2 51/6/2 83/7/2 82/8/2
f 7/9/3 8/10/3 40/11/3 39/12/3
f 21/2/4 22/13/4 54/14/4 53/3/4
f 8/10/5 9/15/5 41/16/5 40/11/5
f 22/13/6 23/17/6 55/18/6 54/14/6
f 9/15/7 10/19/7 42/20/7 41/16/7
f 23/17/8 24/21/8 56/22/8 55/18/8
f 10/19/9 11/23/9 43/24/9 42/20/9
f 24/21/10 25/25/10 57/26/10 56/22/10
f 11/23/11 12/27/11 44/28/11 43/24/11
f 25/25/12 26/29/12 58/30/12 57/26/12
f 12/31/13 13/32/13 45/33/13 44/34/13
f 26/29/14 27/35/14 59/36/14 58/30/14
f 13/32/15 14/37/15 46/38/15 45/33/15
f 27/35/16 28/39/16 60/40/16 59/36/16
f 14/37/17 15/41/17 47/42/17 46/38/17
f 2/43/18 1/44/18 33/45/18 34/46/18
f 28/47/19 29/48/19 61/49/19 60/50/19
f 15/41/20 16/51/20 48/52/20 47/42/20
f 1/44/21 3/53/21 35/54/21 33/45/21
f 29/48/22 30/55/22 62/56/22 61/49/22
f 16/51/23 17/57/23 49/58/23 48/52/23
f 3/53/24 4/59/24 36/60/24 35/54/24
f 30/55/25 31/61/25 63/62/25 62/56/25
f 17/57/26 18/63/26 50/64/26 49/58/26
f 4/65/27 5/66/27 37/67/27 36/68/27
f 31/61/28 32/69/28 64/70/28 63/62/28
f 18/63/29 19/71/29 51/72/29 50/64/29
f 5/66/30 6/73/30 38/74/30 37/67/30
f 32/69/31 2/43/31 34/46/31 64/70/31
f 19/75/32 20/1/32 52/4/32 51/76/32
f 6/73/33 7/9/33 39/12/33 38/74/33
f 73/77/34 74/78/34 106/79/34 105/80/34
f 37/81/35 38/82/35 70/83/35 69/84/35
f 64/85/36 34/86/36 66/87/36 96/88/36
f 51/6/37 52/89/37 84/90/37 83/7/37
f 38/82/38 39/91/38 71/92/38 70/83/38
f 52/89/39 53/93/39 85/94/39 84/90/39
f 39/91/40 40/95/40 72/96/40 71/92/40
f 53/93/41 54/97/41 86/98/41 85/94/41
f 40/95/42 41/99/42 73/100/42 72/96/42
f 54/97/43 55/101/43 87/102/43 86/98/43
f 41/99/44 42/103/44 74/104/44 73/100/44
f 55/101/45 56/105/45 88/106/45 87/102/45
f 42/103/46 43/107/46 75/108/46 74/104/46
f 56/105/47 57/109/47 89/110/47 88/106/47
f 43/107/48 44/111/48 76/112/48 75/108/48
f 57/109/49 58/113/49 90/114/49 89/110/49
f 44/111/50 45/115/50 77/116/50 76/112/50
f 58/113/51 59/117/51 91/118/51 90/114/51
f 45/115/52 46/119/52 78/120/52 77/116/52
f 59/117/53 60/121/53 92/122/53 91/118/53
f 46/119/54 47/123/54 79/124/54 78/120/54
f 34/86/55 33/125/55 65/126/55 66/87/55
f 60/121/56 61/127/56 93/128/56 92/122/56
f 47/123/57 48/129/57 80/130/57 79/124/57
f 33/125/58 35/131/58 67/132/58 65/126/58
f 61/127/59 62/133/59 94/134/59 93/128/59
f 48/129/60 49/135/60 81/136/60 80/130/60
f 35/131/61 36/137/61 68/138/61 67/132/61
f 62/133/62 63/139/62 95/140/62 94/134/62
f 49/135/63 50/5/63 82/8/63 81/136/63
f 36/137/64 37/81/64 69/84/64 68/138/64
f 63/139/65 64/85/65 96/88/65 95/140/65
f 108/141/13 109/142/13 141/143/13 140/144/13
f 87/145/66 88/146/66 120/147/66 119/148/66
f 74/78/67 75/149/67 107/150/67 106/79/67
f 88/146/68 89/151/68 121/152/68 120/147/68
f 75/149/69 76/153/69 108/154/69 107/150/69
f 89/151/70 90/155/70 122/156/70 121/152/70
f 76/153/71 77/157/71 109/158/71 108/154/71
f 90/155/72 91/159/72 123/160/72 122/156/72
f 77/157/73 78/161/73 110/162/73 109/158/73
f 91/159/74 92/163/74 124/164/74 123/160/74
f 78/161/75 79/165/75 111/166/75 110/162/75
f 66/167/76 65/168/76 97/169/76 98/170/76
f 92/163/77 93/171/77 125/172/77 124/164/77
f 79/165/78 80/173/78 112/174/78 111/166/78
f 65/168/79 67/175/79 99/176/79 97/169/79
f 93/171/80 94/177/80 126/178/80 125/172/80
f 80/173/81 81/179/81 113/180/81 112/174/81
f 67/175/82 68/181/82 100/182/82 99/176/82
f 94/177/83 95/183/83 127/184/83 126/178/83
f 81/179/84 82/185/84 114/186/84 113/180/84
f 68/181/85 69/187/85 101/188/85 100/182/85
f 95/183/86 96/189/86 128/190/86 127/184/86
f 82/185/87 83/191/87 115/192/87 114/186/87
f 69/187/88 70/193/88 102/194/88 101/188/88
f 96/189/89 66/167/89 98/170/89 128/190/89
f 83/191/90 84/195/90 116/196/90 115/192/90
f 70/193/91 71/197/91 103/198/91 102/194/91
f 84/195/92 85/199/92 117/200/92 116/196/92
f 71/197/93 72/201/93 104/202/93 103/198/93
f 85/199/94 86/203/94 118/204/94 117/200/94
f 72/201/95 73/77/95 105/80/95 104/202/95
f 86/203/96 87/145/96 119/148/96 118/204/96
f 160/205/97 130/206/97 129/207/97 131/208/97 132/209/97 133/210/97 134/211/97 135/212/97 136/213/97 137/214/97 138/215/97 139/216/97 140/217/97 141/218/97 142/219/97 143/220/97 144/221/97 145/222/97 146/223/97 147/224/97 148/225/97 149/226/97 150/227/97 151/228/97 152/229/97 153/230/97 154/231/97 155/232/97 156/233/97 157/234/97 158/235/97 159/236/97
f 122/237/14 123/238/14 155/239/14 154/240/14
f 109/142/15 110/241/15 142/242/15 141/143/15
f 123/243/16 124/244/16 156/245/16 155/246/16
f 110/241/17 111/247/17 143/248/17 142/242/17
f 98/249/18 97/250/18 129/251/18 130/252/18
f 124/244/19 125/253/19 157/254/19 156/245/19
f 111/247/20 112/255/20 144/256/20 143/248/20
f 97/250/21 99/257/21 131/258/21 129/251/21
f 125/253/22 126/259/22 158/260/22 157/254/22
f 112/255/23 113/261/23 145/262/23 144/256/23
f 99/257/24 100/263/24 132/264/24 131/258/24
f 126/259/25 127/265/25 159/266/25 158/260/25
f 113/261/26 114/267/26 146/268/26 145/262/26
f 100/269/27 101/270/27 133/271/27 132/272/27
f 127/265/28 128/273/28 160/274/28 159/266/28
f 114/267/29 115/275/29 147/276/29 146/268/29
f 101/270/30 102/277/30 134/278/30 133/271/30
f 128/273/31 98/249/31 130/252/31 160/274/31
f 115/275/32 116/279/32 148/280/32 147/276/32
f 102/277/33 103/281/33 135/282/33 134/278/33
f 116/283/1 117/284/1 149/285/1 148/286/1
f 103/281/3 104/287/3 136/288/3 135/282/3
f 117/284/4 118/289/4 150/290/4 149/285/4
f 104/287/5 105/291/5 137/292/5 136/288/5
f 118/289/6 119/293/6 151/294/6 150/290/6
f 105/291/7 106/295/7 138/296/7 137/292/7
f 119/293/8 120/297/8 152/298/8 151/294/8
f 106/295/9 107/299/9 139/300/9 138/296/9
f 120/297/10 121/301/10 153/302/10 152/298/10
f 107/299/11 108/303/11 140/304/11 139/300/11
f 121/301/12 122/237/12 154/240/12 153/302/12
