# Blender v3.4.1 OBJ File: ''
# www.blender.org
mtllib text_texture.mtl
o Cube
v 1.000000 1.000000 1.000000
v 1.000000 -1.000000 1.000000
v -1.000000 1.000000 1.000000
v -1.000000 -1.000000 1.000000
v 1.000000 -1.000000 -2.962562
v -1.000000 -1.000000 -2.962562
v 1.000000 1.000000 -2.962562
v -1.000000 1.000000 -2.962562
vt 0.375000 0.750000
vt 0.625000 0.750000
vt 0.625000 1.000000
vt 0.375000 1.000000
vt 0.625000 0.250000
vt 0.625000 0.500000
vt 0.375000 0.250000
vt 0.375000 0.500000
vn 0.0000 0.0000 1.0000
vn 0.0000 1.0000 0.0000
vn -1.0000 0.0000 0.0000
vn 1.0000 0.0000 0.0000
vn 0.0000 0.0000 -1.0000
vn 0.0000 -1.0000 0.0000
g Cube_Cube_Material.001
usemtl Material.001
s off
f 2/1/1 1/2/1 3/3/1 4/4/1
f 8/5/2 3/3/2 1/2/2 7/6/2
f 8/5/3 6/7/3 4/4/3 3/3/3
f 2/1/4 5/8/4 7/6/4 1/2/4
f 6/7/5 8/5/5 7/6/5 5/8/5
f 4/4/6 6/7/6 5/8/6 2/1/6
